<svg width="174" height="159" viewBox="0 0 174 159" fill="none" xmlns="http://www.w3.org/2000/svg">
<path d="M53.0282 68V17.0909H73.1135C76.9582 17.0909 80.2394 17.7786 82.9572 19.1541C85.6916 20.513 87.7714 22.4437 89.1966 24.946C90.6383 27.4318 91.3592 30.3568 91.3592 33.7209C91.3592 37.1016 90.63 40.0099 89.1717 42.446C87.7134 44.8655 85.6004 46.7216 82.8329 48.0142C80.082 49.3068 76.751 49.9531 72.84 49.9531H59.3919V41.3026H71.1C73.1549 41.3026 74.8618 41.0208 76.2207 40.4574C77.5796 39.8939 78.5905 39.0488 79.2534 37.9219C79.9328 36.795 80.2726 35.3946 80.2726 33.7209C80.2726 32.0305 79.9328 30.6053 79.2534 29.4453C78.5905 28.2853 77.5713 27.407 76.1958 26.8104C74.8369 26.1972 73.1217 25.8906 71.0502 25.8906H63.7917V68H53.0282ZM80.5211 44.8324L93.1738 68H81.2917L68.9125 44.8324H80.5211ZM84.4735 102.091H95.237V135.152C95.237 138.864 94.3504 142.112 92.5772 144.896C90.8206 147.68 88.3597 149.851 85.1944 151.409C82.0292 152.95 78.3419 153.721 74.1326 153.721C69.9068 153.721 66.2112 152.95 63.046 151.409C59.8807 149.851 57.4198 147.68 55.6632 144.896C53.9065 142.112 53.0282 138.864 53.0282 135.152V102.091H63.7917V134.232C63.7917 136.171 64.2143 137.895 65.0595 139.403C65.9212 140.911 67.131 142.096 68.6887 142.957C70.2465 143.819 72.0611 144.25 74.1326 144.25C76.2207 144.25 78.0353 143.819 79.5765 142.957C81.1343 142.096 82.3358 140.911 83.1809 139.403C84.0427 137.895 84.4735 136.171 84.4735 134.232V102.091ZM101.11 102.091H113.166L124.775 124.016H125.272L136.88 102.091H148.936L130.368 135.003V153H119.679V135.003L101.11 102.091Z" fill="white"/>
<path d="M4.42472 151V100.091H24.8082C28.5535 100.091 31.6773 100.646 34.1797 101.756C36.6821 102.867 38.563 104.408 39.8224 106.38C41.0819 108.335 41.7116 110.589 41.7116 113.141C41.7116 115.13 41.3139 116.878 40.5185 118.386C39.723 119.878 38.6293 121.104 37.2372 122.065C35.8617 123.01 34.2874 123.681 32.5142 124.079V124.576C34.4531 124.659 36.2678 125.206 37.9581 126.217C39.665 127.228 41.0488 128.644 42.1094 130.467C43.17 132.274 43.7003 134.428 43.7003 136.93C43.7003 139.632 43.0291 142.043 41.6868 144.164C40.361 146.269 38.3973 147.934 35.7955 149.161C33.1937 150.387 29.987 151 26.1754 151H4.42472ZM15.1882 142.2H23.9631C26.9626 142.2 29.1501 141.629 30.5256 140.485C31.901 139.325 32.5888 137.784 32.5888 135.862C32.5888 134.453 32.2491 133.21 31.5696 132.133C30.8902 131.056 29.9207 130.21 28.6612 129.597C27.4183 128.984 25.9351 128.678 24.2116 128.678H15.1882V142.2ZM15.1882 121.394H23.1676C24.6425 121.394 25.9517 121.137 27.0952 120.624C28.2552 120.093 29.1667 119.348 29.8295 118.386C30.509 117.425 30.8487 116.273 30.8487 114.931C30.8487 113.092 30.1941 111.608 28.8849 110.482C27.5923 109.355 25.7528 108.791 23.3665 108.791H15.1882V121.394Z" fill="#749E50"/>
<path d="M35.87 17.0909H46.6335V50.152C46.6335 53.8641 45.7469 57.1122 43.9737 59.8963C42.2171 62.6804 39.7562 64.8513 36.5909 66.4091C33.4257 67.9503 29.7384 68.7209 25.5291 68.7209C21.3033 68.7209 17.6077 67.9503 14.4425 66.4091C11.2772 64.8513 8.81629 62.6804 7.05966 59.8963C5.30303 57.1122 4.42472 53.8641 4.42472 50.152V17.0909H15.1882V49.2322C15.1882 51.1712 15.6108 52.8946 16.456 54.4027C17.3177 55.9107 18.5275 57.0956 20.0852 57.9574C21.643 58.8191 23.4576 59.25 25.5291 59.25C27.6172 59.25 29.4318 58.8191 30.973 57.9574C32.5308 57.0956 33.7322 55.9107 34.5774 54.4027C35.4392 52.8946 35.87 51.1712 35.87 49.2322V17.0909Z" fill="#749E50"/>
</svg>
