<svg width="39" height="100" viewBox="0 0 39 100" fill="none" xmlns="http://www.w3.org/2000/svg">
<mask id="mask0_57_907" style="mask-type:luminance" maskUnits="userSpaceOnUse" x="0" y="0" width="24" height="35">
<path d="M23.7288 0L0 0L0 34.8754H23.7288V0Z" fill="white"/>
</mask>
<g mask="url(#mask0_57_907)">
<path d="M3.95508 24.911L11.8647 13.2858L19.7743 24.911" stroke="#749E50" stroke-linecap="round" stroke-linejoin="round"/>
<path d="M3.95508 36.5362L11.8647 24.911L19.7743 36.5362" stroke="#749E50" stroke-linecap="round" stroke-linejoin="round"/>
</g>
<mask id="mask1_57_907" style="mask-type:luminance" maskUnits="userSpaceOnUse" x="0" y="65" width="24" height="35">
<path d="M23.7288 65.1245H0L0 100H23.7288V65.1245Z" fill="white"/>
</mask>
<g mask="url(#mask1_57_907)">
<path d="M3.95508 82.5623L11.8647 94.1874L19.7743 82.5623" stroke="#749E50" stroke-linecap="round" stroke-linejoin="round"/>
<path d="M3.95508 70.9372L11.8647 82.5623L19.7743 70.9372" stroke="#749E50" stroke-linecap="round" stroke-linejoin="round"/>
</g>
<path d="M5.63416 49.2633L11.8541 53.0833L18.0317 49.2857" stroke="#749E50" stroke-linecap="round" stroke-linejoin="round"/>
<path d="M11.8542 59.8564V53.076" stroke="#749E50" stroke-linecap="round" stroke-linejoin="round"/>
<path d="M10.3961 45.5555L6.63454 47.7683C5.7822 48.2692 5.08484 49.5251 5.08484 50.5568V54.7805C5.08484 55.8121 5.7822 57.068 6.63454 57.5689L10.3961 59.7892C11.1991 60.2601 12.5163 60.2601 13.3194 59.7892L17.0809 57.5689C17.9332 57.068 18.6306 55.8121 18.6306 54.7805V50.5568C18.6306 49.5251 17.9332 48.2692 17.0809 47.7683L13.3194 45.5481C12.5093 45.0771 11.1991 45.0771 10.3961 45.5555Z" stroke="#749E50" stroke-linecap="round" stroke-linejoin="round"/>
<path d="M26.1378 65V51.9091H31.3793C32.3423 51.9091 33.1456 52.0518 33.7891 52.3374C34.4325 52.6229 34.9162 53.0192 35.2401 53.5263C35.5639 54.0291 35.7259 54.6087 35.7259 55.2649C35.7259 55.7763 35.6236 56.2259 35.419 56.6136C35.2145 56.9972 34.9332 57.3125 34.5753 57.5597C34.2216 57.8026 33.8168 57.9751 33.3608 58.0774V58.2053C33.8594 58.2266 34.326 58.3672 34.7607 58.6271C35.1996 58.8871 35.5554 59.2514 35.8281 59.7202C36.1009 60.1847 36.2372 60.7386 36.2372 61.3821C36.2372 62.0767 36.0646 62.6967 35.7195 63.2422C35.3786 63.7834 34.8736 64.2116 34.2045 64.527C33.5355 64.8423 32.7109 65 31.7308 65H26.1378ZM28.9055 62.7372H31.1619C31.9332 62.7372 32.4957 62.5902 32.8494 62.2962C33.2031 61.9979 33.38 61.6016 33.38 61.1072C33.38 60.745 33.2926 60.4254 33.1179 60.1484C32.9432 59.8714 32.6939 59.6541 32.37 59.4964C32.0504 59.3388 31.669 59.2599 31.2259 59.2599H28.9055V62.7372ZM28.9055 57.3871H30.9574C31.3366 57.3871 31.6733 57.321 31.9673 57.1889C32.2656 57.0526 32.5 56.8608 32.6705 56.6136C32.8452 56.3665 32.9325 56.0703 32.9325 55.7251C32.9325 55.2521 32.7642 54.8707 32.4276 54.581C32.0952 54.2912 31.6222 54.1463 31.0085 54.1463H28.9055V57.3871Z" fill="#749E50"/>
<path d="M34.2237 66.9091H36.9915V75.4105C36.9915 76.3651 36.7635 77.2003 36.3075 77.9162C35.8558 78.6321 35.223 79.1903 34.4091 79.5909C33.5952 79.9872 32.647 80.1854 31.5646 80.1854C30.478 80.1854 29.5277 79.9872 28.7138 79.5909C27.8999 79.1903 27.267 78.6321 26.8153 77.9162C26.3636 77.2003 26.1378 76.3651 26.1378 75.4105V66.9091H28.9055V75.174C28.9055 75.6726 29.0142 76.1158 29.2315 76.5036C29.4531 76.8913 29.7642 77.196 30.1648 77.4176C30.5653 77.6392 31.032 77.75 31.5646 77.75C32.1016 77.75 32.5682 77.6392 32.9645 77.4176C33.3651 77.196 33.674 76.8913 33.8913 76.5036C34.1129 76.1158 34.2237 75.6726 34.2237 75.174V66.9091Z" fill="white"/>
<path d="M25.3707 81.9091H28.4709L31.456 87.5469H31.5838L34.5689 81.9091H37.669L32.8942 90.3722V95H30.1456V90.3722L25.3707 81.9091Z" fill="white"/>
<path d="M33.2237 12.9091H35.9915V21.4105C35.9915 22.3651 35.7635 23.2003 35.3075 23.9162C34.8558 24.6321 34.223 25.1903 33.4091 25.5909C32.5952 25.9872 31.647 26.1854 30.5646 26.1854C29.478 26.1854 28.5277 25.9872 27.7138 25.5909C26.8999 25.1903 26.267 24.6321 25.8153 23.9162C25.3636 23.2003 25.1378 22.3651 25.1378 21.4105V12.9091H27.9055V21.174C27.9055 21.6726 28.0142 22.1158 28.2315 22.5036C28.4531 22.8913 28.7642 23.196 29.1648 23.4176C29.5653 23.6392 30.032 23.75 30.5646 23.75C31.1016 23.75 31.5682 23.6392 31.9645 23.4176C32.3651 23.196 32.674 22.8913 32.8913 22.5036C33.1129 22.1158 33.2237 21.6726 33.2237 21.174V12.9091Z" fill="#749E50"/>
<path d="M26.1378 41V27.9091H31.3026C32.2912 27.9091 33.1349 28.0859 33.8338 28.4396C34.5369 28.7891 35.0717 29.2855 35.4382 29.929C35.8089 30.5682 35.9943 31.3203 35.9943 32.1854C35.9943 33.0547 35.8068 33.8026 35.4318 34.429C35.0568 35.0511 34.5135 35.5284 33.8018 35.8608C33.0945 36.1932 32.2379 36.3594 31.2322 36.3594H27.7741V34.1349H30.7848C31.3132 34.1349 31.7521 34.0625 32.1016 33.9176C32.451 33.7727 32.7109 33.5554 32.8814 33.2656C33.0561 32.9759 33.1435 32.6158 33.1435 32.1854C33.1435 31.7507 33.0561 31.3842 32.8814 31.0859C32.7109 30.7876 32.4489 30.5618 32.0952 30.4084C31.7457 30.2507 31.3047 30.1719 30.772 30.1719H28.9055V41H26.1378ZM33.2074 35.0426L36.4609 41H33.4055L30.2223 35.0426H33.2074Z" fill="white"/>
</svg>
